<svg width="18" height="18" viewBox="0 0 18 18" fill="none" xmlns="http://www.w3.org/2000/svg">
    <path fill-rule="evenodd" clip-rule="evenodd" d="M16.5001 3.99999H12.3334V2.60833C12.3139 2.07484 12.0836 1.57088 11.6931 1.2069C11.3025 0.842932 10.7836 0.648655 10.2501 0.666661H7.75008C7.21654 0.648655 6.69763 0.842932 6.30711 1.2069C5.91658 1.57088 5.6863 2.07484 5.66675 2.60833V3.99999H1.50008C1.27907 3.99999 1.06711 4.08779 0.910826 4.24407C0.754545 4.40035 0.666748 4.61231 0.666748 4.83333C0.666748 5.05434 0.754545 5.2663 0.910826 5.42258C1.06711 5.57886 1.27907 5.66666 1.50008 5.66666H2.33341V14.8333C2.33341 15.4964 2.59681 16.1323 3.06565 16.6011C3.53449 17.0699 4.17037 17.3333 4.83342 17.3333H13.1667C13.8298 17.3333 14.4657 17.0699 14.9345 16.6011C15.4034 16.1323 15.6667 15.4964 15.6667 14.8333V5.66666H16.5001C16.7211 5.66666 16.9331 5.57886 17.0893 5.42258C17.2456 5.2663 17.3334 5.05434 17.3334 4.83333C17.3334 4.61231 17.2456 4.40035 17.0893 4.24407C16.9331 4.08779 16.7211 3.99999 16.5001 3.99999ZM7.33342 2.60833C7.33342 2.47499 7.50841 2.33333 7.75008 2.33333H10.2501C10.4917 2.33333 10.6667 2.47499 10.6667 2.60833V3.99999H7.33342V2.60833ZM14.0001 14.8333C14.0001 15.0543 13.9123 15.2663 13.756 15.4226C13.5997 15.5789 13.3878 15.6667 13.1667 15.6667H4.83342C4.6124 15.6667 4.40044 15.5789 4.24416 15.4226C4.08788 15.2663 4.00008 15.0543 4.00008 14.8333V5.66666H14.0001V14.8333ZM6.50008 13.1667C6.7211 13.1667 6.93306 13.0789 7.08934 12.9226C7.24562 12.7663 7.33341 12.5543 7.33341 12.3333V8.99999C7.33341 8.77898 7.24562 8.56702 7.08934 8.41074C6.93306 8.25446 6.7211 8.16666 6.50008 8.16666C6.27907 8.16666 6.06711 8.25446 5.91083 8.41074C5.75455 8.56702 5.66675 8.77898 5.66675 8.99999V12.3333C5.66675 12.5543 5.75455 12.7663 5.91083 12.9226C6.06711 13.0789 6.27907 13.1667 6.50008 13.1667ZM12.0893 12.9226C11.9331 13.0789 11.7211 13.1667 11.5001 13.1667C11.2791 13.1667 11.0671 13.0789 10.9108 12.9226C10.7545 12.7663 10.6667 12.5543 10.6667 12.3333V8.99999C10.6667 8.77898 10.7545 8.56702 10.9108 8.41074C11.0671 8.25446 11.2791 8.16666 11.5001 8.16666C11.7211 8.16666 11.9331 8.25446 12.0893 8.41074C12.2456 8.56702 12.3334 8.77898 12.3334 8.99999V12.3333C12.3334 12.5543 12.2456 12.7663 12.0893 12.9226Z" fill="#BCBCBC"/>
</svg>
