<svg width="10" height="5" viewBox="0 0 10 5" fill="none" xmlns="http://www.w3.org/2000/svg">
    <path d="M4.99997 4.66666C4.84421 4.66697 4.69325 4.61272 4.57331 4.51333L0.573308 1.18C0.289802 0.944354 0.251 0.523502 0.486642 0.239996C0.722283 -0.0435107 1.14314 -0.0823126 1.42664 0.153329L4.99997 3.14L8.57331 0.259995C8.71104 0.148149 8.88767 0.0958162 9.0641 0.114585C9.24052 0.133354 9.40219 0.221676 9.51331 0.359996C9.63673 0.498568 9.69681 0.682314 9.6791 0.867035C9.66139 1.05176 9.56748 1.22074 9.41997 1.33333L5.41997 4.55333C5.29659 4.63701 5.14871 4.67691 4.99997 4.66666Z" fill="#67ADB9"/>
</svg>
