<svg width="7" height="12" viewBox="0 0 7 12" fill="none" xmlns="http://www.w3.org/2000/svg">
    <path d="M1.49998 11.25C1.32474 11.2504 1.15491 11.1893 1.01998 11.0775C0.866599 10.9504 0.770119 10.7674 0.751827 10.569C0.733535 10.3706 0.794935 10.1731 0.92248 10.02L4.28248 6.00002L1.04248 1.97252C0.916652 1.81757 0.857778 1.61886 0.878893 1.42038C0.900008 1.2219 0.99937 1.04002 1.15498 0.91502C1.31185 0.77699 1.5192 0.710663 1.72706 0.732019C1.93492 0.753374 2.12445 0.860476 2.24998 1.02752L5.87248 5.52752C6.09997 5.80427 6.09997 6.20327 5.87248 6.48002L2.12248 10.98C1.96988 11.1641 1.73866 11.2644 1.49998 11.25Z" fill="#5F97A0"/>
</svg>
