<svg width="29" height="28" viewBox="0 0 29 28" fill="none" xmlns="http://www.w3.org/2000/svg">
<path d="M19.3004 19.0573C19.3541 21.3996 19.4052 23.742 19.4537 26.0843L19.7474 25.7905C14.8534 26.235 9.94651 26.5313 5.032 26.6692C3.67566 26.7075 2.32187 26.7331 0.965527 26.7484L1.25927 27.0421C1.27205 20.3217 1.28737 13.5988 1.30014 6.87834C1.30525 4.96515 1.30781 3.04941 1.31291 1.13623L1.01917 1.42997C5.77276 1.2103 10.534 1.19753 15.2876 1.39677C16.5699 1.45041 17.8521 1.51938 19.1318 1.60367L18.8381 1.30992C18.9352 4.69439 19.0271 8.07887 19.114 11.4633C19.1242 11.8388 19.7091 11.8414 19.6989 11.4633C19.6121 8.07887 19.5201 4.69439 19.423 1.30992C19.4179 1.14389 19.2928 1.02639 19.1293 1.01617C14.4319 0.707101 9.71918 0.602374 5.01157 0.704547C3.67821 0.732645 2.34741 0.778622 1.01406 0.839926C0.855691 0.847589 0.720312 0.967642 0.720312 1.13367C0.707541 7.85409 0.692215 14.5771 0.679443 21.2975C0.674335 23.2107 0.67178 25.1264 0.666672 27.0396C0.666672 27.1954 0.80205 27.3333 0.960418 27.3333C5.84939 27.2797 10.7358 27.0753 15.6094 26.7177C16.9888 26.6156 18.3656 26.5032 19.7423 26.378C19.8981 26.3627 20.0386 26.2554 20.0361 26.0843C19.9875 23.742 19.9365 21.3996 19.8828 19.0573C19.8752 18.6818 19.2877 18.6793 19.2979 19.0573H19.3004Z" fill="#5F97A0"/>
<path d="M4.8532 24.9553C6.3628 24.5977 7.42029 23.438 7.88263 21.9871H7.31812C7.39475 22.309 7.44839 22.6436 7.54545 22.9603C7.60676 23.157 7.70638 23.2771 7.90561 23.346C8.00268 23.3792 8.12018 23.3409 8.1917 23.272C8.52631 22.945 8.80984 22.5797 9.03718 22.1736L8.50077 21.9488C8.38583 22.2605 8.33219 22.5797 8.33729 22.9118C8.3424 23.134 8.58251 23.2745 8.77919 23.1647C9.01419 23.0319 9.22364 22.8735 9.41011 22.6819L8.95033 22.3269C8.73832 22.6972 8.74088 23.2464 9.27217 23.323C9.73451 23.3895 10.0768 22.8709 10.2019 22.4955C10.3067 22.1864 9.80092 21.9642 9.66554 22.2707C9.30283 23.1034 9.12402 24.1839 10.0691 24.71C11.0142 25.2362 12.1764 24.7484 13.1062 24.5159C13.4715 24.424 13.3157 23.8595 12.9504 23.9514C12.248 24.1277 11.4025 24.4623 10.6719 24.3116C9.76005 24.1251 9.8801 23.2311 10.1713 22.567L9.63489 22.3422C9.59913 22.4469 9.55571 22.521 9.48929 22.6104C9.45609 22.6538 9.35136 22.8071 9.45353 22.6257C9.61701 22.3396 9.22875 22.028 8.99375 22.2707C8.8405 22.429 8.67446 22.5516 8.48034 22.6615L8.92223 22.9144C8.91712 22.6283 8.9631 22.3754 9.06272 22.1072C9.18022 21.793 8.68723 21.5963 8.52631 21.8824C8.32197 22.2502 8.07165 22.5695 7.77279 22.8633L8.05887 22.7892C8.15083 22.8198 8.08952 22.7688 8.08186 22.6921C8.06909 22.59 8.03333 22.4878 8.01034 22.3882C7.96692 22.2068 7.92349 22.0229 7.88263 21.8415C7.81366 21.5478 7.40241 21.5784 7.31812 21.8415C6.91709 23.1008 6.0052 24.0893 4.69739 24.3984C4.32957 24.4853 4.48538 25.0498 4.8532 24.9629V24.9553Z" fill="#5F97A0"/>
<path d="M4.39342 5.79786C4.52369 5.6446 4.70761 5.39939 4.93239 5.38917C5.10608 5.38151 5.30021 5.51433 5.4739 5.54498C5.93879 5.62928 6.41134 5.44792 6.88644 5.48368C7.36154 5.51944 7.77534 5.64716 8.22235 5.71357C9.3769 5.88215 10.5723 5.84384 11.732 5.83618C13.0679 5.82596 14.4038 5.79275 15.7372 5.74933C16.1126 5.73656 16.1152 5.15162 15.7372 5.16439C13.6988 5.22825 11.6554 5.29977 9.61701 5.23336C9.36158 5.22569 9.10359 5.21292 8.84816 5.19504C8.74599 5.18738 8.64637 5.17972 8.54675 5.1695C8.47267 5.16184 8.35007 5.14651 8.35517 5.14651C7.86219 5.07243 7.38709 4.93705 6.88644 4.90129C6.61568 4.88086 6.34237 4.88597 6.07417 4.93705C5.75488 4.9958 5.54542 4.96004 5.24146 4.86298C4.72549 4.69439 4.30402 5.00347 3.98218 5.38662C3.73952 5.6727 4.15332 6.08905 4.39598 5.80041L4.39342 5.79786Z" fill="#5F97A0"/>
<path d="M4.61054 7.75958C5.52754 7.61143 6.45731 7.58333 7.38709 7.568C8.31686 7.55268 9.24408 7.5348 10.1739 7.55012C11.1036 7.56545 11.9849 7.62675 12.8891 7.71105C13.7933 7.79534 14.7308 7.86686 15.6529 7.75702C16.0232 7.7136 16.0258 7.12611 15.6529 7.17208C14.7103 7.28447 13.7678 7.20785 12.8278 7.121C11.8878 7.03415 10.9785 6.9754 10.0487 6.96518C8.19681 6.9422 6.28617 6.90388 4.45473 7.19763C4.08435 7.25638 4.24016 7.82088 4.61054 7.76213V7.75958Z" fill="#5F97A0"/>
<path d="M10.3705 9.70086C11.3744 9.59613 12.3425 9.52972 13.3489 9.64211C14.3553 9.7545 15.3029 9.88988 16.2838 9.69575C16.6542 9.62168 16.4958 9.05717 16.128 9.13125C15.1675 9.32282 14.1969 9.14657 13.2365 9.0444C12.2761 8.94223 11.331 9.01375 10.368 9.11592C9.9976 9.15424 9.99249 9.74173 10.368 9.70086H10.3705Z" fill="#5F97A0"/>
<path d="M4.62076 10.0738C5.59651 9.77238 6.61313 9.76472 7.62464 9.78515C8.00268 9.79282 8.00268 9.20788 7.62464 9.20021C6.56204 9.17978 5.48923 9.19511 4.46495 9.51184C4.10479 9.62168 4.25805 10.1887 4.62076 10.0763V10.0738Z" fill="#5F97A0"/>
<path d="M13.5251 11.9487C14.368 11.9691 15.2084 12.0381 16.036 12.1964C16.3247 12.2526 16.5188 11.9333 16.3221 11.706C16.2863 11.6626 16.248 11.6217 16.2123 11.5783C16.1075 11.4582 15.9057 11.471 15.7985 11.5783C15.681 11.6958 15.6937 11.872 15.7985 11.9921C15.8342 12.0355 15.8725 12.0764 15.9083 12.1198L16.1944 11.6294C15.3157 11.4608 14.4217 11.3842 13.5277 11.3612C13.1496 11.351 13.1496 11.9384 13.5277 11.9461L13.5251 11.9487Z" fill="#5F97A0"/>
<path d="M4.66418 12.1658C5.69357 11.9946 6.73829 12.1019 7.77534 12.107C8.8124 12.1121 9.88266 12.0508 10.935 12.0023C11.3105 11.9844 11.3131 11.3995 10.935 11.4174C9.84179 11.4685 8.74599 11.5323 7.65274 11.5221C6.55949 11.5119 5.55564 11.4301 4.51092 11.6038C4.14055 11.6651 4.29636 12.2296 4.66674 12.1683L4.66418 12.1658Z" fill="#5F97A0"/>
<path d="M4.68462 14.7354C8.52631 14.6716 12.368 14.6077 16.2097 14.5439C16.5852 14.5387 16.5877 13.9512 16.2097 13.9589C12.368 14.0228 8.52631 14.0866 4.68462 14.1505C4.30913 14.1556 4.30658 14.7431 4.68462 14.7354Z" fill="#5F97A0"/>
<path d="M4.93238 17.0267C7.66806 16.5234 10.4446 16.2936 13.2263 16.3395C13.6043 16.3446 13.6043 15.7597 13.2263 15.7546C10.3935 15.7061 7.56333 15.9487 4.77657 16.4621C4.40619 16.5311 4.56201 17.0956 4.93238 17.0267Z" fill="#5F97A0"/>
<path d="M4.99113 18.5465C7.18785 19.0165 9.42544 18.7968 11.6502 18.7942C12.0283 18.7942 12.0283 18.2067 11.6502 18.2093C9.48163 18.2119 7.28747 18.4392 5.14695 17.982C4.77913 17.9028 4.62331 18.4673 4.99113 18.5465Z" fill="#5F97A0"/>
<path d="M22.2456 13.9078C21.0272 15.0445 19.727 16.102 18.4703 17.1978C17.2136 18.2936 15.8674 19.3562 14.4549 20.2757C13.7627 20.7279 13.0526 21.1749 12.3042 21.5223C12.2505 21.5478 12.0589 21.5912 12.013 21.6372L11.9568 21.6525C11.9721 21.7802 11.99 21.793 12.013 21.6959C12.0692 21.65 12.1202 21.489 12.156 21.4277C12.202 21.3486 12.2556 21.2719 12.3067 21.1953C12.5519 20.8275 12.8355 20.4826 13.119 20.148C14.2122 18.8607 15.3463 17.6244 16.5877 16.4775C17.9747 15.1952 19.4333 14.01 20.8969 12.8197H20.501C20.6185 12.9372 20.7794 12.9193 20.8994 12.8222C20.9939 12.7456 21.0859 12.669 21.1779 12.5872C21.4512 12.3446 21.0501 11.9461 20.7794 12.1888C20.6874 12.2705 20.5955 12.3471 20.501 12.4238H20.8969C20.7794 12.3063 20.6185 12.3241 20.4984 12.4212C17.6478 14.7405 14.8457 17.1007 12.534 19.9794C12.2531 20.3294 11.9644 20.6717 11.7269 21.0523C11.5685 21.3077 11.2799 21.7368 11.4868 22.0408C11.6783 22.3218 12.0538 22.2298 12.322 22.1302C12.7563 21.9667 13.1726 21.7292 13.5685 21.489C15.1318 20.5439 16.6133 19.5094 18.0028 18.3242C19.5584 16.9986 21.1523 15.7035 22.6466 14.3089C22.9122 14.0611 22.5138 13.6626 22.2481 13.9104L22.2456 13.9078Z" fill="#5F97A0"/>
<path d="M21.8701 11.7596C23.3133 10.4212 24.9199 9.22831 26.6135 8.22191C26.994 7.99458 27.5075 7.69572 27.9596 7.67529C28.1026 7.66762 28.0388 7.65741 28.0234 7.74936C28.0081 7.86175 27.9443 7.97159 27.8932 8.0712C27.7808 8.29343 27.6428 8.50799 27.5024 8.71234C26.9379 9.52717 26.238 10.2526 25.5432 10.955C24.759 11.7494 23.9365 12.4953 23.1013 13.236C22.8177 13.4864 23.2341 13.9002 23.5151 13.6498C24.381 12.8835 25.2239 12.107 26.0413 11.2896C26.8587 10.4723 27.6428 9.63445 28.2252 8.66892C28.4347 8.32153 28.7667 7.79278 28.5598 7.37388C28.3529 6.95497 27.7731 7.08013 27.4308 7.19252C26.8944 7.36877 26.404 7.66251 25.9212 7.9486C25.4385 8.23468 24.9378 8.56674 24.4678 8.90391C23.4231 9.65744 22.3988 10.4646 21.4563 11.3382C21.1804 11.5962 21.5942 12.0074 21.8701 11.752V11.7596Z" fill="#5F97A0"/>
<path d="M26.7284 10.4365C27.0196 10.8248 26.6645 11.2386 26.4347 11.5655C26.1256 12.0049 25.722 12.4289 25.3312 12.7941C24.3989 13.6703 23.4538 14.5336 22.5214 15.4123H22.9889C22.7181 15.1748 22.335 15.1058 22.0463 15.374C21.7832 15.6192 21.7475 16.0586 22.0208 16.314V15.8466L22.0157 15.8517C21.8803 15.9794 21.9007 16.1888 22.0157 16.3191C22.2839 16.6231 22.7232 16.5311 23.0093 16.3089C23.3976 16.0075 23.7679 15.6652 24.1281 15.3331C24.8024 14.7099 25.4921 14.1045 26.1435 13.4557C26.7948 12.8069 27.4385 12.176 27.8932 11.3969C28.0745 11.0853 28.2278 10.6945 28.1282 10.3318C28.003 9.87966 27.6633 9.68043 27.2035 9.73918C26.7871 9.79282 26.782 10.4544 27.2035 10.4007C27.3542 10.3803 27.4487 10.3343 27.4794 10.4723C27.51 10.6102 27.4819 10.7226 27.4283 10.8554C27.321 11.1134 27.1422 11.3739 26.9685 11.5911C26.5087 12.1607 25.9953 12.6843 25.4742 13.1952C24.9838 13.6779 24.478 14.1607 23.9544 14.6077C23.6785 14.8427 23.4052 15.0854 23.137 15.3306C23.0016 15.4532 22.8714 15.5784 22.7309 15.6933C22.6721 15.7418 22.6108 15.7878 22.5495 15.8338C22.501 15.8721 22.4627 15.8338 22.4831 15.8542V16.3217L22.4882 16.3166C22.6159 16.1965 22.6159 15.9692 22.4882 15.8491C22.4984 15.8619 22.5087 15.8721 22.5214 15.8823C22.6594 16.0024 22.8509 16.0126 22.9889 15.8823C24.0464 14.8861 25.1779 13.9615 26.1613 12.8912C26.759 12.2424 28.0158 11.0598 27.298 10.107C27.0451 9.77238 26.4704 10.0993 26.7284 10.4416V10.4365Z" fill="#5F97A0"/>
<path d="M20.9301 11.3918C20.7513 11.5553 20.6287 11.7903 20.6849 12.0381C20.7257 12.2194 20.8867 12.3574 21.0016 12.4953C21.1063 12.6179 21.2111 12.7405 21.3183 12.8631C21.3694 12.9193 21.418 12.9781 21.4716 13.0342C21.492 13.0547 21.5099 13.0751 21.5304 13.0956C21.5508 13.116 21.5687 13.139 21.5866 13.1594C21.5712 13.1415 21.5738 13.1441 21.5917 13.1671C21.796 13.4276 22.031 13.6626 22.2456 13.9155C22.3145 13.9972 22.3528 14.0432 22.3937 14.0917C22.4627 14.1811 22.5342 14.2501 22.644 14.291C22.902 14.3855 23.1472 14.2756 23.3465 14.1122H22.9327L22.9378 14.1173C23.0451 14.2399 23.2443 14.2195 23.3516 14.1173C23.5253 13.9538 23.6479 13.706 23.5917 13.4634C23.5789 13.4046 23.5508 13.3484 23.5176 13.2999C23.51 13.2871 23.4282 13.1901 23.4538 13.2207C23.395 13.1492 23.3414 13.0751 23.2775 13.0062C23.1677 12.8861 23.0706 12.7558 22.9557 12.6434C22.902 12.5898 22.8509 12.5336 22.7999 12.4749C22.7718 12.4416 22.7437 12.411 22.7181 12.3778C22.7028 12.3599 22.6849 12.3395 22.6696 12.319C22.6926 12.3471 22.69 12.3446 22.6619 12.3088C22.4652 12.0534 22.2379 11.8184 22.0284 11.5757C21.9058 11.4352 21.7909 11.2564 21.6019 11.2028C21.3567 11.1338 21.1166 11.2411 20.9301 11.3944C20.8381 11.4685 20.8126 11.6549 20.8841 11.7494C20.9786 11.8797 21.137 11.9436 21.2851 11.8567C21.4103 11.7826 21.4844 11.5834 21.3899 11.4557C21.3745 11.5706 21.3592 11.6907 21.3439 11.8082C21.3771 11.7801 21.4077 11.775 21.4486 11.7673C21.418 11.7724 21.3771 11.7034 21.4307 11.7801C21.4461 11.8031 21.4691 11.8235 21.4869 11.8439C21.5687 11.9384 21.6504 12.0355 21.7321 12.13C21.8139 12.2245 21.8982 12.3165 21.9774 12.411C22.0182 12.457 22.0565 12.503 22.0974 12.5489C22.123 12.577 22.1459 12.6026 22.1689 12.6307C22.1817 12.6434 22.1919 12.6588 22.2047 12.6715C22.1817 12.6434 22.1843 12.646 22.2124 12.6818C22.3682 12.8861 22.5521 13.0649 22.7181 13.2616C22.759 13.3101 22.7999 13.3561 22.8407 13.3995C22.8637 13.4251 22.8867 13.4506 22.9097 13.4761C22.9991 13.5758 22.8893 13.448 22.9429 13.517C22.9506 13.5272 23.0221 13.6243 23.0246 13.6243C23.0297 13.6217 23.0042 13.5732 23.017 13.5809C23.0425 13.5936 22.9403 13.6984 22.9327 13.7086H23.3465L23.3414 13.7035C23.229 13.5758 23.0425 13.609 22.9276 13.7035C22.8969 13.7265 22.8458 13.7418 22.8279 13.7444L22.8688 13.7622C22.8509 13.7444 22.8356 13.7239 22.8203 13.7035C22.8612 13.752 22.7999 13.6754 22.7794 13.6524C22.6977 13.5502 22.6083 13.4506 22.5214 13.351C22.4422 13.259 22.358 13.1722 22.2762 13.0828C22.1945 12.9934 22.1102 12.8989 22.0617 12.835C21.9033 12.623 21.7117 12.434 21.538 12.2347C21.4563 12.1402 21.3745 12.0457 21.2954 11.9487C21.2902 11.9436 21.2443 11.8823 21.2417 11.8848C21.2417 11.8848 21.2494 11.9308 21.2468 11.9282C21.2213 11.9129 21.3235 11.8209 21.3362 11.8082C21.4537 11.7009 21.4435 11.5017 21.3362 11.3944C21.2187 11.2769 21.0399 11.2871 20.9224 11.3944L20.9301 11.3918Z" fill="#5F97A0"/>
<path d="M20.6287 13.2054C19.1778 14.3421 17.727 15.4787 16.3885 16.7457C15.7372 17.3638 15.142 18.0356 14.5034 18.664C13.898 19.2591 13.2263 19.7419 12.4702 20.1276C12.11 20.3115 12.0053 20.8198 12.202 21.1544C12.4165 21.5223 12.8661 21.6091 13.2288 21.4226C14.0411 21.0114 14.787 20.475 15.4434 19.8466C16.0999 19.2183 16.7052 18.5209 17.3668 17.8875C18.7283 16.5873 20.2123 15.4251 21.6938 14.2654C22.0131 14.0151 21.9569 13.4659 21.6938 13.2028C21.3797 12.8887 20.9531 12.9525 20.6312 13.2028L20.6287 13.2054Z" fill="#5F97A0"/>
<path d="M20.2634 13.7954C19.6095 14.2756 18.953 14.7559 18.2991 15.2361C17.9722 15.4762 17.6427 15.7214 17.3745 16.0279C17.1063 16.3344 16.8713 16.6869 16.6465 17.0343C16.4217 17.3817 16.5673 17.8772 16.9147 18.0612C17.2876 18.2578 17.7142 18.1454 17.9415 17.7929C18.036 17.6448 18.1306 17.4992 18.2327 17.3536C18.2736 17.2923 18.317 17.2157 18.3707 17.1646C18.2557 17.2719 18.3528 17.1901 18.3809 17.1569C18.4064 17.1263 18.432 17.0982 18.4575 17.0675C18.575 16.9347 18.7027 16.8146 18.8381 16.7023C18.8688 16.6767 18.8994 16.6537 18.9301 16.6282C18.999 16.5694 18.8279 16.7048 18.9403 16.6205C19.0118 16.5669 19.0833 16.5132 19.1548 16.4621C19.7781 16.0049 20.3988 15.5503 21.022 15.093C21.1855 14.973 21.3107 14.8453 21.3669 14.6435C21.4154 14.4647 21.395 14.2246 21.2902 14.0662C21.0885 13.7546 20.6006 13.5477 20.2634 13.798V13.7954Z" fill="#5F97A0"/>
<path d="M23.3541 12.2194C24.2916 12.0738 25.063 11.5298 25.6479 10.8069C25.7092 10.7303 25.7705 10.6562 25.8395 10.5847C25.8778 10.5463 25.9187 10.5106 25.957 10.4723C26.0157 10.4186 25.8701 10.5208 25.9876 10.4569C26.1767 10.3522 26.3733 10.2551 26.5624 10.1479C26.9813 9.90776 27.3082 9.56037 27.6173 9.19511C27.8727 8.89625 27.9315 8.4237 27.6173 8.13251C27.3363 7.87452 26.828 7.81322 26.5547 8.13251C26.4219 8.29088 26.2865 8.44669 26.1383 8.59229C26.1 8.6306 26.0592 8.66636 26.0208 8.70212C25.9723 8.7481 25.9647 8.75065 26.0208 8.70723C25.9417 8.76598 25.8599 8.81707 25.7731 8.8656C25.3695 9.09038 24.9736 9.28195 24.6645 9.64211C24.5368 9.79026 24.4244 9.94863 24.289 10.0891C24.2252 10.1581 24.1562 10.2245 24.0847 10.2858C24.0847 10.2858 23.934 10.4007 24.0132 10.3445C24.0923 10.2884 23.9518 10.3854 23.9365 10.3956C23.8573 10.4467 23.7756 10.4953 23.6939 10.5387C23.6479 10.5642 23.5994 10.5847 23.5534 10.6076C23.4844 10.6409 23.4946 10.6255 23.5585 10.6076C23.3567 10.6715 23.1626 10.7328 22.9506 10.766C22.5623 10.8273 22.312 11.3331 22.4269 11.6907C22.5649 12.1147 22.9327 12.2807 23.3516 12.2143L23.3541 12.2194Z" fill="#5F97A0"/>
<path d="M24.9659 8.82728C24.547 9.32027 24.054 9.73918 23.5738 10.1709C23.0604 10.6357 22.5751 11.1287 22.1996 11.7137C22.0361 11.9665 22.0821 12.319 22.2583 12.5464C22.4346 12.7737 22.7641 12.9142 23.0476 12.8146C24.0821 12.457 24.874 11.7188 25.6249 10.9525C25.9008 10.6715 25.9263 10.1657 25.6249 9.88988C25.3235 9.61401 24.8561 9.59103 24.5623 9.88988C24.2405 10.2168 23.9186 10.5463 23.561 10.835C23.5432 10.8503 23.5253 10.8631 23.5074 10.8784C23.4461 10.9269 23.4614 10.9167 23.5534 10.8426C23.5023 10.8707 23.4563 10.9142 23.4103 10.9474C23.3184 11.0112 23.2264 11.0725 23.1319 11.1287C23.0374 11.1849 22.9403 11.2386 22.8382 11.2871C22.8126 11.2999 22.7845 11.3126 22.7564 11.3254C22.6824 11.3586 22.7028 11.351 22.8126 11.3024C22.759 11.3101 22.6977 11.3458 22.644 11.3637L23.4921 12.4672C23.5355 12.4008 23.5789 12.3344 23.6275 12.268C23.6479 12.2399 23.676 12.2118 23.6913 12.1811C23.6096 12.3395 23.6351 12.2526 23.6811 12.1964C23.7782 12.0789 23.8778 11.964 23.9825 11.8542C24.1996 11.6268 24.4295 11.4123 24.662 11.2002C25.1294 10.7788 25.6122 10.3675 26.0208 9.88477C26.1511 9.72896 26.2405 9.56293 26.2405 9.35347C26.2405 9.16956 26.1588 8.94989 26.0208 8.82217C25.7424 8.56674 25.2316 8.50289 24.9582 8.82217L24.9659 8.82728Z" fill="#5F97A0"/>
</svg>
